<svg width="35" height="28" viewBox="0 0 35 28" fill="none" xmlns="http://www.w3.org/2000/svg">
<path d="M17.5 0C14.4281 7.80381e-05 11.4103 0.808765 8.74993 2.34478C6.08959 3.8808 3.88044 6.09002 2.3445 8.75041C0.808571 11.4108 -1.951e-05 14.4286 3.53064e-10 17.5006C1.95107e-05 20.5725 0.808649 23.5903 2.34461 26.2507C2.57668 26.6545 2.95966 26.9495 3.40929 27.071C3.85892 27.1924 4.33837 27.1303 4.74218 26.8982C5.14598 26.6661 5.44105 26.2831 5.56248 25.8335C5.68392 25.3839 5.62176 24.9044 5.38969 24.5006C4.14968 22.3763 3.49735 19.9602 3.49964 17.5004C3.50048 15.3535 3.99509 13.2354 4.94522 11.3101C5.89536 9.38482 7.27556 7.70383 8.97912 6.39714C10.6827 5.09044 12.6639 4.19305 14.7697 3.77435C16.8755 3.35565 19.0493 3.42686 21.1231 3.98248C23.197 4.5381 25.1153 5.56324 26.7297 6.97862C28.344 8.39401 29.6113 10.1617 30.4334 12.1451C31.2554 14.1284 31.6104 16.2743 31.4707 18.4167C31.331 20.5592 30.7005 22.6408 29.6278 24.5006C29.5121 24.7004 29.437 24.921 29.407 25.1499C29.3769 25.3788 29.3924 25.6113 29.4526 25.8342C29.5128 26.057 29.6165 26.2658 29.7577 26.4484C29.8989 26.631 30.0748 26.7839 30.2753 26.8982C30.6772 27.1263 31.1529 27.1863 31.5988 27.065C32.0447 26.9437 32.4245 26.651 32.6554 26.2507C34.1913 23.5903 35 20.5725 35 17.5006C35 14.4286 34.1914 11.4108 32.6555 8.75041C31.1196 6.09002 28.9104 3.8808 26.2501 2.34478C23.5897 0.808765 20.5719 7.80381e-05 17.5 0ZM22.4701 10.0803L19.7576 12.7753C19.0554 12.4291 18.2829 12.2495 17.5 12.2503C16.4616 12.2503 15.4466 12.5582 14.5832 13.1351C13.7198 13.712 13.0469 14.532 12.6495 15.4913C12.2521 16.4506 12.1482 17.5063 12.3507 18.5247C12.5533 19.5431 13.0533 20.4786 13.7876 21.2128C14.5218 21.9471 15.4573 22.4471 16.4757 22.6497C17.4942 22.8523 18.5498 22.7483 19.5091 22.3509C20.4685 21.9536 21.2884 21.2806 21.8653 20.4173C22.4422 19.5539 22.7501 18.5388 22.7501 17.5004C22.7489 16.7234 22.5693 15.957 22.2251 15.2604L24.9377 12.5653C25.1017 12.4026 25.2319 12.2091 25.3208 11.9958C25.4096 11.7826 25.4553 11.5538 25.4553 11.3228C25.4553 11.0918 25.4096 10.863 25.3208 10.6498C25.2319 10.4365 25.1017 10.2429 24.9377 10.0803C24.6098 9.75431 24.1662 9.57136 23.7039 9.57136C23.2416 9.57136 22.798 9.75431 22.4701 10.0803ZM17.5 19.2505C17.0359 19.2505 16.5907 19.0661 16.2625 18.7379C15.9343 18.4097 15.75 17.9646 15.75 17.5004C15.75 17.0363 15.9343 16.5912 16.2625 16.263C16.5907 15.9348 17.0359 15.7504 17.5 15.7504C17.9566 15.7477 18.3963 15.9235 18.725 16.2404C18.8925 16.4046 19.0253 16.6007 19.1155 16.8171C19.2056 17.0336 19.2514 17.266 19.25 17.5004C19.25 17.9646 19.0657 18.4097 18.7375 18.7379C18.4093 19.0661 17.9641 19.2505 17.5 19.2505Z" fill="#A5A5A5"/>
</svg>
